<?xml version="1.0" encoding="utf-8"?>
<!-- Generator: Adobe Illustrator 23.0.5, SVG Export Plug-In . SVG Version: 6.00 Build 0)  -->
<svg version="1.1" id="Layer_1" xmlns="http://www.w3.org/2000/svg" xmlns:xlink="http://www.w3.org/1999/xlink" x="0px" y="0px"
	 width="31.06px" height="30.16px" viewBox="0 0 31.06 30.16" style="enable-background:new 0 0 31.06 30.16;" xml:space="preserve"
	>
<style type="text/css">
	.st0{fill:#5FECFD;}
	.st1{opacity:0.4;fill:#0147DC;}
	.st2{fill:#0046D9;}
	.st3{fill:#0153FF;}
	.st4{fill:#00BDF7;}
</style>
<g>
	<path class="st0" d="M7.62,14.76l0.54,0.37l-7.4-4.97C0.29,9.84,0.01,9.31,0.01,8.75L0,1.11C0,0.22,0.99-0.3,1.73,0.19l13.8,9.26
		L7.62,14.76z"/>
	<path class="st1" d="M22.86,15.15l-6.54,4.41c-0.23,0.16-0.51,0.24-0.78,0.24c0.26-0.01,0.52-0.08,0.74-0.23L22.86,15.15z"/>
	<polygon class="st2" points="23.44,14.76 15.53,9.45 16.59,8.74 	"/>
	<path class="st3" d="M31.06,1.11l-0.01,7.63c0,0.57-0.28,1.1-0.75,1.41l-6.86,4.6l0,0l-6.85-6.02l12.74-8.55
		C30.07-0.3,31.06,0.22,31.06,1.11z"/>
	<path class="st4" d="M23.44,14.76l-0.58,0.39l-6.57,4.41c-0.22,0.15-0.48,0.23-0.74,0.23h-0.02c-0.26-0.01-0.52-0.08-0.74-0.23
		l-6.61-4.44l-0.54-0.37l7.91-5.31L23.44,14.76z"/>
	<path class="st1" d="M14.78,19.56c0.22,0.15,0.48,0.23,0.74,0.23c-0.27,0-0.54-0.08-0.78-0.24l-6.58-4.43L14.78,19.56z"/>
	<polygon class="st1" points="23.44,14.76 22.86,15.15 23.44,14.76 	"/>
	<path class="st3" d="M7.08,25.84c-2.01,1.4-4.03,2.8-6.04,4.2C0.6,30.34,0,30.03,0,29.49v-8.34c0-0.51,0.57-0.82,1-0.54l6.07,4.02
		C7.5,24.92,7.51,25.55,7.08,25.84z"/>
	<path class="st0" d="M31.06,21.15v8.34c0,0.54-0.6,0.85-1.04,0.54c-2.01-1.4-4.03-2.8-6.04-4.2c-0.42-0.29-0.42-0.92,0.01-1.21
		l6.07-4.02C30.49,20.33,31.06,20.64,31.06,21.15z"/>
</g>
</svg>
