<?xml version="1.0" encoding="utf-8"?>
<!-- Generator: Adobe Illustrator 23.0.5, SVG Export Plug-In . SVG Version: 6.00 Build 0)  -->
<svg version="1.1" id="Layer_1" xmlns="http://www.w3.org/2000/svg" xmlns:xlink="http://www.w3.org/1999/xlink" x="0px" y="0px"
	 width="39px" height="51px" viewBox="0 0 39 51" style="enable-background:new 0 0 39 51;" xml:space="preserve">
<style type="text/css">
	.st0{fill:#0ACF83;}
	.st1{fill:#A259FF;}
	.st2{fill:#F24E1E;}
	.st3{fill:#FF7262;}
	.st4{fill:#1ABCFE;}
</style>
<path class="st0" d="M11.5,50.2c4.6,0,8.3-3.7,8.3-8.3v-8.3h-8.3c-4.6,0-8.3,3.7-8.3,8.3S6.9,50.2,11.5,50.2z"/>
<path class="st1" d="M3.2,25.3c0-4.6,3.7-8.3,8.3-8.3h8.3v16.6h-8.3C6.9,33.6,3.2,29.9,3.2,25.3z"/>
<path class="st2" d="M3.2,8.7c0-4.6,3.7-8.3,8.3-8.3h8.3V17h-8.3C6.9,17,3.2,13.3,3.2,8.7z"/>
<path class="st3" d="M19.8,0.4h8.3c4.6,0,8.3,3.7,8.3,8.3S32.7,17,28.1,17h-8.3V0.4z"/>
<path class="st4" d="M36.4,25.3c0,4.6-3.7,8.3-8.3,8.3s-8.3-3.7-8.3-8.3s3.7-8.3,8.3-8.3S36.4,20.7,36.4,25.3z"/>
</svg>
