<?xml version="1.0" encoding="utf-8"?>
<!-- Generator: Adobe Illustrator 23.0.5, SVG Export Plug-In . SVG Version: 6.00 Build 0)  -->
<svg version="1.1" id="Layer_1" xmlns="http://www.w3.org/2000/svg" xmlns:xlink="http://www.w3.org/1999/xlink" x="0px" y="0px"
	 width="49.5px" height="51px" viewBox="0 0 49.5 51" style="enable-background:new 0 0 49.5 51;" xml:space="preserve">
<style type="text/css">
	.st0{fill:#FF2D20;}
</style>
<path class="st0" d="M49.5,11.5c0,0.1,0,0.1,0,0.2v10.9c0,0.3-0.2,0.6-0.4,0.7L40,28.7v10.5c0,0.3-0.2,0.5-0.4,0.7l-19.2,11
	c0,0-0.1,0-0.1,0.1c0,0,0,0-0.1,0s-0.3,0-0.4,0c0,0,0,0-0.1,0c0,0-0.1,0-0.1-0.1l-19.2-11C0.2,39.7,0,39.5,0,39.2V6.3
	c0-0.1,0-0.1,0-0.2c0,0,0,0,0-0.1c0,0,0-0.1,0.1-0.1c0,0,0,0,0.1-0.1c0,0,0-0.1,0.1-0.1c0,0,0.1,0,0.1-0.1c0,0,0.1,0,0.1-0.1l0,0
	L10,0.1c0.2-0.1,0.6-0.1,0.8,0l9.6,5.5l0,0c0,0,0.1,0,0.1,0.1c0,0,0.1,0,0.1,0.1c0,0,0,0.1,0.1,0.1c0,0,0,0,0.1,0.1
	c0,0,0,0.1,0.1,0.1c0,0,0,0,0,0.1s0,0.1,0,0.2v20.5l8-4.6V11.7c0-0.1,0-0.1,0-0.2c0,0,0,0,0-0.1c0,0,0-0.1,0.1-0.1c0,0,0,0,0.1-0.1
	c0,0,0-0.1,0.1-0.1c0,0,0.1,0,0.1-0.1c0,0,0.1,0,0.1-0.1l0,0L39,5.4c0.2-0.1,0.6-0.1,0.8,0l9.6,5.5c0,0,0.1,0,0.1,0.1
	c0,0,0.1,0,0.1,0.1c0,0,0,0.1,0.1,0.1c0,0,0,0,0.1,0.1C49.5,11.4,49.5,11.4,49.5,11.5L49.5,11.5L49.5,11.5z M47.9,22.2v-9.1L44.5,15
	L40,17.7v9.1L47.9,22.2L47.9,22.2z M38.4,38.7v-9.1l-4.6,2.6l-13,7.4v9.2L38.4,38.7z M1.6,7.7v31l17.6,10.1v-9.2L10,34.4l0,0l0,0
	c0,0-0.1,0-0.1-0.1c0,0-0.1,0-0.1-0.1l0,0c0,0,0-0.1-0.1-0.1c0,0,0,0-0.1-0.1l0,0v-0.1v-0.1l0,0v-0.1v-0.1V12.3L5,9.6L1.6,7.7
	L1.6,7.7z M10.4,1.7l-8,4.6l8,4.6l8-4.6L10.4,1.7L10.4,1.7z M14.5,30.4l4.6-2.7v-20l-3.4,1.9l-4.6,2.7v20.1L14.5,30.4z M39.2,7.1
	l-8,4.6l8,4.6l8-4.6L39.2,7.1z M38.4,17.7L33.8,15l-3.4-1.9v9.1l4.6,2.7l3.4,1.9C38.4,26.8,38.4,17.7,38.4,17.7z M20,38.2l11.7-6.7
	l5.9-3.3l-8-4.6l-9.2,5.3L12,33.7L20,38.2z"/>
</svg>
