<?xml version="1.0" encoding="utf-8"?>
<!-- Generator: Adobe Illustrator 23.0.5, SVG Export Plug-In . SVG Version: 6.00 Build 0)  -->
<svg version="1.1" id="Layer_1" xmlns="http://www.w3.org/2000/svg" xmlns:xlink="http://www.w3.org/1999/xlink" x="0px" y="0px"
	 width="69px" height="51px" viewBox="0 0 69 51" style="enable-background:new 0 0 69 51;" xml:space="preserve">
<style type="text/css">
	.st0{fill:#00C492;}
	.st1{fill:#008776;}
	.st2{fill:#2D4A5D;}
</style>
<g>
	<path class="st0" d="M21.1,49.2C21,49.1,21,49,21,48.9c-0.3-0.6-0.4-1.3-0.2-2H4.6l24-42.3l7.9,13.9l2.3-4L31.9,2.3
		C31.2,1,30,0.2,28.5,0.1c-1.4,0.1-2.7,0.9-3.3,2.2L0.9,45.1c-0.7,1.2-0.8,2.7-0.2,4c0.8,1.2,2.1,1.9,3.6,1.7h20.4
		C23.2,51,21.9,50.4,21.1,49.2L21.1,49.2z"/>
	<path class="st1" d="M68,45.1L48,9.9c-0.7-1.3-1.9-2.1-3.4-2.2c-1.4,0.1-2.7,0.9-3.3,2.2l-2.6,4.5l2.3,4l3.6-6.3l19.8,34.7h-7.5
		c0.1,0.6,0,1.2-0.2,1.7c0,0.1-0.1,0.2-0.2,0.3l-0.1,0.1c-0.8,1.2-2.2,1.9-3.6,1.8h11.8c1.4,0,2.8-0.6,3.6-1.8
		C68.9,47.8,68.8,46.3,68,45.1L68,45.1z"/>
	<path class="st2" d="M56.5,49.1L56.5,49.1c0.2-0.2,0.2-0.3,0.3-0.4c0.2-0.5,0.3-1.1,0.2-1.7c-0.1-0.6-0.3-1.2-0.7-1.8L41.1,18.5
		l-2.3-4l-2.3,4L21.3,45.1c-0.3,0.5-0.5,1.1-0.6,1.8s0,1.4,0.2,2c0,0.1,0.1,0.2,0.1,0.3c0.8,1.2,2.1,1.9,3.6,1.7h28.2
		C54.3,50.9,55.7,50.2,56.5,49.1L56.5,49.1z M38.8,22.5l13.8,24.4H24.9L38.8,22.5z"/>
</g>
</svg>
