<?xml version="1.0" encoding="utf-8"?>
<!-- Generator: Adobe Illustrator 23.0.5, SVG Export Plug-In . SVG Version: 6.00 Build 0)  -->
<svg version="1.1" id="Layer_1" xmlns="http://www.w3.org/2000/svg" xmlns:xlink="http://www.w3.org/1999/xlink" x="0px" y="0px"
	 width="56px" height="51px" viewBox="0 0 56 51" style="enable-background:new 0 0 56 51;" xml:space="preserve">
<style type="text/css">
	.st0{fill:url(#SVGID_1_);}
	.st1{fill:#006699;}
	.st2{fill:#CEE6FF;}
</style>
<g>
	
		<linearGradient id="SVGID_1_" gradientUnits="userSpaceOnUse" x1="-388.4214" y1="335.2968" x2="-388.4214" y2="352.7267" gradientTransform="matrix(2.7525 0 0 2.7525 1097.1846 -921.3198)">
		<stop  offset="1.800000e-02" style="stop-color:#3BB6FF"/>
		<stop  offset="0.302" style="stop-color:#39AFFF"/>
		<stop  offset="0.552" style="stop-color:#36A3FF"/>
		<stop  offset="0.717" style="stop-color:#359FFF"/>
		<stop  offset="0.832" style="stop-color:#3398FF"/>
		<stop  offset="0.964" style="stop-color:#3297FF"/>
	</linearGradient>
	<path class="st0" d="M2,17.5c0.1-0.3,4.1-14,19.9-14.2c0,0,6.6-7.5,15.7,0c0,0,2.4,2,3.8,6.2c0,0,11.9,1.8,13.8,11.6
		c0,0,4,16.1-9.5,27.5c0,0-1.9,1.5-3.2,2.2c0,0-2.8,0-3.4,0c-1.2,0-2,0-3.1,0c0,0-1.7-0.6-1.8-2.6c0,0-0.1-6.9-0.1-8.1
		c0,0,0-1.1-1.6-1c0,0-1.5-0.2-1.8,1.2c0,0,0,7.1-0.1,8.4c0,0-0.1,2.1-2.4,2.2c0,0-8.4,0.3-9.5-0.1c0,0-1.9-0.4-2.1-2.2
		c0,0-1.6-9.4-1.9-12.3c0,0-5.3-3-6.4-3.7c0,0,0.4,9.5,3.7,13.6c0,0,0.6,0.5-0.6,1.2c0,0-0.4,0.4-0.9,0.1c0,0-14.2-7.9-9-28.2"/>
	<path class="st1" d="M17.9,30.6c0,0,12.4,7.1,19.9-4.3c0,0,6.1-7.9,3.7-16.4c0,0,4.3,7.1-4,18.1C37.5,28.1,30.5,37.9,17.9,30.6
		L17.9,30.6z"/>
	<path class="st2" d="M13,28.9c0,0,0.9,4.1-1.8,5.4c0,0-6.2-2.5-5.6-7.3c0,0,0.2-1.2,1.3-0.5c0,0,2.7,1.5,4.9,1.9
		C11.9,28.5,13,28.6,13,28.9z"/>
	<path class="st1" d="M11.3,22c0,0,0.9-4,4.5-3.7c0,0,3,0.1,3.1,4.2C18.9,22.5,16.5,16.3,11.3,22L11.3,22z"/>
</g>
</svg>
