<?xml version="1.0" encoding="utf-8"?>
<!-- Generator: Adobe Illustrator 23.0.5, SVG Export Plug-In . SVG Version: 6.00 Build 0)  -->
<svg version="1.1" id="Layer_1" xmlns="http://www.w3.org/2000/svg" xmlns:xlink="http://www.w3.org/1999/xlink" x="0px" y="0px"
	 width="79px" height="48px" viewBox="0 0 79 48" style="enable-background:new 0 0 79 48;" xml:space="preserve">
<style type="text/css">
	.st0{fill-rule:evenodd;clip-rule:evenodd;fill:#38BDF8;}
</style>
<path class="st0" d="M39.7,0.5C29.4,0.5,22.9,5.7,20.3,16c3.9-5.2,8.4-7.1,13.6-5.8c3,0.7,5.1,2.9,7.4,5.3c3.8,3.9,8.2,8.4,17.9,8.4
	c10.4,0,16.8-5.2,19.4-15.6c-3.9,5.2-8.4,7.1-13.6,5.8c-3-0.7-5.1-2.9-7.4-5.3C53.8,5,49.4,0.5,39.7,0.5z M20.3,23.8
	C9.9,23.8,3.4,29,0.9,39.4c3.9-5.2,8.4-7.1,13.6-5.8c3,0.7,5.1,2.9,7.4,5.3c3.8,3.9,8.2,8.4,17.9,8.4c10.4,0,16.8-5.2,19.4-15.6
	c-3.9,5.2-8.4,7.1-13.6,5.8c-3-0.7-5.1-2.9-7.4-5.3C34.3,28.3,29.9,23.8,20.3,23.8z"/>
</svg>
