<?xml version="1.0" encoding="utf-8"?>
<!-- Generator: Adobe Illustrator 23.0.5, SVG Export Plug-In . SVG Version: 6.00 Build 0)  -->
<svg version="1.1" id="Layer_1" xmlns="http://www.w3.org/2000/svg" xmlns:xlink="http://www.w3.org/1999/xlink" x="0px" y="0px"
	 width="68px" height="49px" viewBox="0 0 68 49" style="enable-background:new 0 0 68 49;" xml:space="preserve">
<style type="text/css">
	.st0{fill:#4353FF;}
</style>
<path class="st0" d="M50.2,14.9c0,0-5.4,17.6-5.8,19.1c-0.2-1.5-4.1-33.1-4.1-33.1c-9.2,0-14.1,6.8-16.7,14c0,0-6.6,17.6-7.1,19.1
	c0-1.4-1-18.9-1-18.9C14.9,6.2,7.1,0.9,0.8,0.9l7.6,47.9c9.6,0,14.8-6.8,17.6-14c0,0,5.8-15.6,6-16.3c0,0.7,4.2,30.3,4.2,30.3
	c9.7,0,14.9-6.4,17.7-13.3L67.4,0.9C57.9,0.9,52.8,7.7,50.2,14.9z"/>
</svg>
