<?xml version="1.0" encoding="utf-8"?>
<!-- Generator: Adobe Illustrator 23.0.5, SVG Export Plug-In . SVG Version: 6.00 Build 0)  -->
<svg version="1.1" id="Layer_1" xmlns="http://www.w3.org/2000/svg" xmlns:xlink="http://www.w3.org/1999/xlink" x="0px" y="0px"
	 width="155.24px" height="150.73px" viewBox="0 0 155.24 150.73" style="enable-background:new 0 0 155.24 150.73;"
	 xml:space="preserve">
<style type="text/css">
	.st0{fill:#5FECFD;}
	.st1{opacity:0.4;fill:#0147DC;}
	.st2{fill:#0046D9;}
	.st3{fill:#0153FF;}
	.st4{fill:#00BDF7;}
</style>
<g>
	<path class="st0" d="M38.1,73.77l2.72,1.83L3.81,50.77c-2.35-1.58-3.76-4.22-3.77-7.05L0,5.56c-0.01-4.44,4.95-7.08,8.63-4.61
		l68.99,46.3L38.1,73.77z"/>
	<path class="st1" d="M114.24,75.73L81.55,97.77c-1.17,0.79-2.52,1.18-3.87,1.18c1.3-0.03,2.59-0.42,3.71-1.17L114.24,75.73z"/>
	<polygon class="st2" points="117.14,73.77 77.62,47.25 82.92,43.69 	"/>
	<path class="st3" d="M155.24,5.56l-0.04,38.16c0,2.83-1.41,5.48-3.76,7.05l-34.29,23.01l-0.01-0.01L82.92,43.69l63.7-42.74
		C150.3-1.52,155.25,1.12,155.24,5.56z"/>
	<path class="st4" d="M117.14,73.77l-2.9,1.96L81.38,97.78c-1.12,0.75-2.41,1.14-3.71,1.17h-0.11c-1.3-0.03-2.59-0.42-3.71-1.17
		L40.82,75.61l-2.72-1.83l39.52-26.52L117.14,73.77z"/>
	<path class="st1" d="M73.86,97.78c1.12,0.75,2.41,1.14,3.71,1.17c-1.36,0-2.71-0.39-3.87-1.18L40.82,75.61L73.86,97.78z"/>
	<polygon class="st1" points="117.15,73.78 114.24,75.73 117.14,73.77 	"/>
	<path class="st3" d="M35.4,129.16c-10.07,6.99-20.13,13.98-30.2,20.98C3,151.66,0,150.09,0,147.41V105.7
		c0-2.56,2.85-4.09,4.98-2.68l30.35,20.1C37.49,124.55,37.52,127.69,35.4,129.16z"/>
	<path class="st0" d="M155.24,105.7v41.71c0,2.67-3.01,4.24-5.2,2.72c-10.07-6.99-20.14-13.99-30.21-20.98
		c-2.11-1.47-2.08-4.61,0.07-6.04l30.35-20.1C152.39,101.61,155.24,103.14,155.24,105.7z"/>
</g>
</svg>
